<svg xmlns="http://www.w3.org/2000/svg" viewBox="0 0 1376.60876 915.6521"><title>logo_skizze</title><g id="Logo"><polygon points="761.478 0 914.087 152.609 1376.609 152.609 1376.609 0 761.478 0"/><rect x="914.08704" y="375.6521" width="462.52173" height="163.56519"/><polygon points="764.609 915.652 1376.609 915.652 1376.609 764.609 914.087 764.609 764.609 915.652"/><path d="M961.17389,1498.19258a.077.077,0,0,0-.03174.038c0,.00061.02979.00086.07861.00086C961.25928,1498.16572,961.249,1498.14753,961.17389,1498.19258Z" transform="translate(-811.69562 -1041.14912)"/><path d="M1311.05243,1041.20894l-.05249-.05982H811.69562l151.82611,152.60864h309.31048a150.44092,150.44092,0,0,1,0,300.88184v.00012c-193.54431,2.26526-308.308,3.59192-311.61145,3.59168-1.96826,3.35839-149.52514,148.65686-149.52514,148.65686v309.913l151.04352-1.56518V1654.71431h345.64434c.71778.02893,1.453.04846,2.22522.04846,167.629-.00379,306.7826-138.08252,306.7826-306.78259C1617.3913,1166.97151,1456.97919,1044.23164,1311.05243,1041.20894Z" transform="translate(-811.69562 -1041.14912)"/></g></svg>